<?xml version="1.0" standalone="no"?><!DOCTYPE svg PUBLIC "-//W3C//DTD SVG 1.1//EN" "http://www.w3.org/Graphics/SVG/1.1/DTD/svg11.dtd"><svg t="1680271404158" class="icon" viewBox="0 0 1024 1024" version="1.1" xmlns="http://www.w3.org/2000/svg" p-id="3878" xmlns:xlink="http://www.w3.org/1999/xlink" width="200" height="200"><path d="M908.288 692.224a25.6 25.6 0 0 1-46.592-21.248 384 384 0 1 0-114.688 144.7424 25.6 25.6 0 0 1 31.3344 40.448 435.2 435.2 0 1 1 129.8944-163.9936zM359.6288 274.944a22.9376 22.9376 0 0 1 20.7872 25.7536A5727.232 5727.232 0 0 1 371.2 369.664h45.568a27.136 27.136 0 0 1 27.136 27.136c-3.072 81.92-16.384 152.576-39.936 212.992 22.528 23.552 41.472 45.056 55.808 64l-32.768 38.4c-12.8-17.408-27.648-35.328-45.056-54.784a370.1248 370.1248 0 0 1-54.528 75.9296 22.016 22.016 0 0 1-33.024-1.4336 27.2384 27.2384 0 0 1 1.792-36.0448c3.6864-3.7888 6.7584-7.0656 9.1648-9.8304 16.896-19.456 31.232-41.0112 43.3152-64.4608-19.968-20.48-41.472-41.984-65.024-64.512 11.264-43.008 22.016-90.112 31.232-140.8h-12.544a23.296 23.296 0 1 1 0-46.592H322.56a5615.9744 5615.9744 0 0 0 10.24-73.1136 24.9344 24.9344 0 0 1 26.88-21.6064z m9.472 299.52c16.384-46.592 26.624-99.328 29.696-158.208H363.52c-8.704 50.176-17.92 92.672-27.648 126.464 11.776 11.264 23.04 21.504 33.28 31.744z m344.064-29.696v194.048a10.24 10.24 0 0 1-10.24 10.24h-26.112a10.24 10.24 0 0 1-10.24-10.24v-18.432h-140.288v18.432a10.24 10.24 0 0 1-10.24 10.24h-25.6a10.24 10.24 0 0 1-10.24-10.24v-194.048c0-11.264 9.216-20.48 20.48-20.48h192c11.264 0 20.48 9.216 20.48 20.48z m-186.88 130.048h140.288v-105.984h-140.288v105.984zM462.848 486.912l-7.68-44.032c22.0672-7.168 52.1216-51.3536 90.112-132.7104l5.9904-13.1584a26.8288 26.8288 0 0 1 32.9216-14.3872 21.504 21.504 0 0 1 12.544 29.696l-5.376 11.0592c-22.4256 45.1584-44.9024 84.1216-68.096 116.4288 49.152-3.072 96.768-8.192 142.848-15.36a1052.3648 1052.3648 0 0 0-26.3168-51.0976 21.8112 21.8112 0 0 1 9.6768-30.0544 24.832 24.832 0 0 1 32.3584 10.0352l6.2976 11.1616a1332.992 1332.992 0 0 1 46.6944 93.5936 25.4464 25.4464 0 0 1-12.1344 33.4336 23.2448 23.2448 0 0 1-31.5392-11.9808 515.1744 515.1744 0 0 0-6.0928-14.1312c-66.56 9.216-140.8 16.384-222.208 21.504z"  p-id="3879"></path></svg>
